<?xml version="1.0" encoding="UTF-8" standalone="no"?>
<!-- Created with Inkscape (http://www.inkscape.org/) -->

<svg
   xmlns:dc="http://purl.org/dc/elements/1.1/"
   xmlns:cc="http://creativecommons.org/ns#"
   xmlns:rdf="http://www.w3.org/1999/02/22-rdf-syntax-ns#"
   xmlns:svg="http://www.w3.org/2000/svg"
   xmlns="http://www.w3.org/2000/svg"
   xmlns:sodipodi="http://sodipodi.sourceforge.net/DTD/sodipodi-0.dtd"
   xmlns:inkscape="http://www.inkscape.org/namespaces/inkscape"
   width="357.53125"
   height="423.95618"
   id="svg2"
   version="1.1"
   inkscape:version="0.48.4 r9939"
   sodipodi:docname="Shifter.svg"
   inkscape:export-filename="/home/facmate1/Escritorio/programmer.png"
   inkscape:export-xdpi="90"
   inkscape:export-ydpi="90">
  <defs
     id="defs4" />
  <sodipodi:namedview
     id="base"
     pagecolor="#ffffff"
     bordercolor="#666666"
     borderopacity="1.0"
     inkscape:pageopacity="0.0"
     inkscape:pageshadow="2"
     inkscape:zoom="0.98994949"
     inkscape:cx="116.20382"
     inkscape:cy="210.68162"
     inkscape:document-units="px"
     inkscape:current-layer="layer1"
     showgrid="false"
     fit-margin-top="0"
     fit-margin-left="0"
     fit-margin-right="0"
     fit-margin-bottom="0"
     inkscape:window-width="1920"
     inkscape:window-height="1156"
     inkscape:window-x="0"
     inkscape:window-y="25"
     inkscape:window-maximized="1" />
  <g
     inkscape:label="Capa 1"
     inkscape:groupmode="layer"
     id="layer1"
     transform="translate(-210.34375,-256.45006)">
    <g
       id="g3018">
      <path
         inkscape:connector-curvature="0"
         id="path3766"
         d="m 304.08756,319.56332 c -13.88756,0.0106 -27.10414,7.66976 -32.93184,20.42283 -6.94992,15.20897 -1.05837,32.54775 13.0925,41.39273 -8.62911,1.32692 -15.17124,7.90848 -15.17124,15.90063 l 0,115.3161 0,12.07137 0,4.33986 c 0,6.88466 4.25201,12.43604 9.51849,12.43604 l 84.35362,0 71.00585,71.88111 c 7.36453,7.45259 17.38647,9.37313 22.46512,4.33984 l 10.72198,-10.61257 c 5.07858,-5.03338 3.20705,-15.08547 -4.1575,-22.53806 l -75.41862,-76.33037 c -5.06313,-5.12365 -11.34586,-7.63712 -16.4477,-7.07505 -0.009,-0.004 -0.027,0.004 -0.0364,0 -1.12012,-0.60344 -2.35775,-0.94821 -3.64694,-0.94821 l -55.90753,0 0,-69.54707 c 0.48702,0.19844 0.95177,0.40731 1.45878,0.58352 l 69.5106,24.17918 c 9.89679,3.43966 19.62044,1.11747 21.80868,-5.17866 l 2.7352,-7.87737 c 2.18824,-6.29611 -3.99803,-14.13858 -13.89482,-17.57822 l -69.5106,-24.14271 c -4.27434,-1.48556 -8.49005,-1.90098 -12.10784,-1.38586 l 0,-1.93287 c 0,-3.95267 -1.61109,-7.55474 -4.26691,-10.35728 12.69092,-1.07076 24.37142,-8.48699 29.759,-20.27697 7.82142,-17.11607 -0.55968,-36.94881 -18.74524,-44.31028 l -14.1866,30.9625 13.85837,-31.10836 c -4.53444,-1.78888 -9.22918,-2.62923 -13.85837,-2.6258 z"
         style="fill:#000000;fill-opacity:1;stroke:none" />
      <path
         inkscape:connector-curvature="0"
         id="path3768"
         d="m 300.55296,306.94572 -2.94717,-18.27245 -8.84151,7.36794 0.29472,-26.81925 4.42076,16.79886 8.25206,-6.77849 z"
         style="fill:#000000;fill-opacity:1;stroke:none" />
      <path
         style="fill:#000000;fill-opacity:1;stroke:none"
         d="m 325.20771,309.14712 2.48146,-18.34152 -10.59898,4.48556 8.0638,-25.57996 -0.64372,17.35888 9.86387,-4.0925 z"
         id="path3770"
         inkscape:connector-curvature="0" />
      <path
         inkscape:connector-curvature="0"
         id="path3772"
         d="m 347.46992,323.79761 11.87297,-14.19864 -11.35912,-1.85184 20.45374,-17.34943 -9.79423,14.34635 10.52762,1.79275 z"
         style="fill:#000000;fill-opacity:1;stroke:none" />
      <path
         inkscape:connector-curvature="0"
         id="rect3774"
         d="m 233.29504,412.05888 c -6.14115,0 -11.08671,3.75607 -11.08671,8.38796 l 0,60.1015 c 0,2.94225 2.0033,5.54936 5.03279,7.03858 l 0,126.18398 c 0,4.62746 3.70018,8.35146 8.31501,8.35146 l 9.19027,0 c 4.61483,0 8.31501,-3.724 8.31501,-8.35146 l 0,-57.22042 62.50849,0 0,56.70985 c 0,4.91753 3.73665,8.86203 8.35147,8.86203 l 9.19028,0 c 4.61484,0 8.31502,-3.9445 8.31502,-8.86203 l 0,-72.06345 c 0,-1.61356 -0.39355,-3.11164 -1.09408,-4.4128 -1.19121,-3.50641 -5.0954,-6.09037 -9.73732,-6.09037 l -77.53386,0 0,-44.01853 c 2.17119,-1.52437 3.53754,-3.70275 3.53754,-6.12684 l 0,-60.1015 c 0,-4.63189 -4.94553,-8.38796 -11.08668,-8.38796 l -0.76587,0 -9.19027,0 -2.26109,0 z"
         style="fill:#000000;fill-opacity:1;stroke:none" />
      <path
         inkscape:connector-curvature="0"
         id="rect3795"
         d="m 437.58109,295.7317 c -5.70438,0 -10.28436,6.90921 -10.28436,15.46299 l 0,89.34994 c 0,8.55377 4.57998,15.46299 10.28436,15.46299 l 11.23255,0 c 5.70438,0 10.28436,-6.90922 10.28436,-15.46299 l 0,-89.34994 c 0,-8.55378 -4.57998,-15.46299 -10.28436,-15.46299 l -11.23255,0 z m 33.62475,58.97092 c -4.73494,0 -8.5703,3.67726 -8.5703,8.2421 l 0,88.98522 -10.17497,0 c 0.79127,-1.6468 1.23997,-3.53513 1.23997,-5.54333 0,-6.46529 -4.62072,-11.6702 -10.39376,-11.6702 l -74.21515,0 c -5.77307,0 -10.39376,5.20491 -10.39376,11.6702 0,2.0082 0.4487,3.89653 1.23995,5.54333 l -15.463,0 c -8.00284,0 -14.44188,5.80753 -14.44188,13.01955 l 0,9.33617 c 0,7.212 6.43904,13.01956 14.44188,13.01956 l 44.20085,0 0,124.98048 c 0,5.70435 5.80755,10.28436 13.01957,10.28436 l 9.33615,0 c 7.21202,0 13.01956,-4.58001 13.01956,-10.28436 l 0,-124.98048 43.61735,0 0,124.98048 c 0,5.70435 5.80753,10.28436 13.01955,10.28436 l 9.2997,0 c 7.21202,0 13.01956,-4.58001 13.01956,-10.28436 l 0,-124.98048 38.32928,0 c 8.00285,0 14.44188,-5.80756 14.44188,-13.01956 l 0,-9.33617 c 0,-7.21202 -6.43903,-13.01955 -14.44188,-13.01955 l -61.59673,0 0,-88.98522 c 0,-4.56484 -3.7989,-8.2421 -8.53382,-8.2421 z"
         style="fill:#000000;fill-opacity:1;stroke:none" />
    </g>
  </g>
  <metadata
     id="metadata19">
    <rdf:RDF>
      <cc:Work>
        <dc:format>image/svg+xml</dc:format>
        <dc:type
           rdf:resource="http://purl.org/dc/dcmitype/StillImage" />
        <cc:license
           rdf:resource="http://creativecommons.org/licenses/publicdomain/" />
        <dc:publisher>
          <cc:Agent
             rdf:about="http://openclipart.org/">
            <dc:title>Open Clip Art Library</dc:title>
          </cc:Agent>
        </dc:publisher>
        <dc:title>Programmer working</dc:title>
        <dc:date>2012-07-15T21:39:02</dc:date>
        <dc:description>Hombre programando</dc:description>
        <dc:source>http://openclipart.org/detail/171195/programmer-working-by-developingo-171195</dc:source>
        <dc:creator>
          <cc:Agent>
            <dc:title>developingo</dc:title>
          </cc:Agent>
        </dc:creator>
        <dc:subject>
          <rdf:Bag>
            <rdf:li>clip art</rdf:li>
            <rdf:li>clipart</rdf:li>
            <rdf:li>programmer</rdf:li>
            <rdf:li>signal</rdf:li>
            <rdf:li>working</rdf:li>
          </rdf:Bag>
        </dc:subject>
      </cc:Work>
      <cc:License
         rdf:about="http://creativecommons.org/licenses/publicdomain/">
        <cc:permits
           rdf:resource="http://creativecommons.org/ns#Reproduction" />
        <cc:permits
           rdf:resource="http://creativecommons.org/ns#Distribution" />
        <cc:permits
           rdf:resource="http://creativecommons.org/ns#DerivativeWorks" />
      </cc:License>
    </rdf:RDF>
  </metadata>
</svg>
